<svg xmlns="http://www.w3.org/2000/svg" viewBox="0 0 760 1120" role="img" aria-labelledby="title"><title id="title">Pokémon Pinball Red Field schematic</title><defs><marker id="r" markerWidth="8" markerHeight="8" refX="6" refY="3" orient="auto"><path d="M0 0L6 3 0 6Z" fill="#ff786a"/></marker><marker id="y" markerWidth="8" markerHeight="8" refX="6" refY="3" orient="auto"><path d="M0 0L6 3 0 6Z" fill="#f4d35e"/></marker></defs><rect width="760" height="1120" fill="#fff8ee"/><text x="380" y="35" text-anchor="middle" font-family="sans-serif" font-size="23" font-weight="bold" fill="#722b22">POKÉMON PINBALL · RED FIELD (SCHEMATIC)</text>
<rect x="90" y="65" width="580" height="425" rx="34" fill="#f6d8ce" stroke="#9b4237" stroke-width="6"/><text x="380" y="95" text-anchor="middle" font-family="sans-serif" font-size="17" fill="#722b22">UPPER SCREEN</text>
<!-- launch lane --> <path d="M610 125V360Q610 405 565 420" fill="none" stroke="#9b4237" stroke-width="24"/><text x="636" y="250" transform="rotate(90 636 250)" font-family="sans-serif" font-size="13" fill="#fff">PLUNGER / ENTRY</text>
<!-- three loop tracks --> <path d="M170 455Q125 400 145 180Q160 125 220 122" fill="none" stroke="#be6252" stroke-width="27"/><path d="M255 460Q215 405 240 205Q255 150 305 145" fill="none" stroke="#d9886f" stroke-width="20"/><path d="M505 455Q565 390 545 175Q530 125 470 122" fill="none" stroke="#be6252" stroke-width="25"/><text x="124" y="280" transform="rotate(-85 124 280)" font-family="sans-serif" font-size="12" fill="#fff">LEFT OUTSIDE LOOP · EVO</text><text x="204" y="310" transform="rotate(-82 204 310)" font-family="sans-serif" font-size="12" fill="#fff">LEFT INSIDE</text><text x="572" y="270" transform="rotate(85 572 270)" font-family="sans-serif" font-size="12" fill="#fff">RIGHT LOOP · CATCH</text>
<rect x="258" y="112" width="100" height="44" rx="10" fill="#fff0a8" stroke="#a16207" stroke-width="3"/><text x="308" y="139" text-anchor="middle" font-family="sans-serif" font-size="12" fill="#713f12">3 MULTIPLIER LANES</text><circle cx="375" cy="235" r="30" fill="#ffe594" stroke="#9b6d00" stroke-width="4"/><text x="375" y="240" text-anchor="middle" font-family="sans-serif" font-size="12" fill="#5b4500">STARYU</text><g fill="#4b5563" stroke="#111827" stroke-width="3"><circle cx="330" cy="320" r="27"/><circle cx="380" cy="310" r="27"/><circle cx="430" cy="320" r="27"/></g><text x="380" y="365" text-anchor="middle" font-family="sans-serif" font-size="13" fill="#292524">3 VOLTORB BUMPERS</text><rect x="145" y="120" width="90" height="44" rx="12" fill="#a855f7" stroke="#6b21a8" stroke-width="3"/><text x="190" y="147" text-anchor="middle" font-family="sans-serif" font-size="12" fill="white">DITTO / EVO CAVE</text><rect x="475" y="120" width="95" height="44" rx="12" fill="#78a545" stroke="#3f6212" stroke-width="3"/><text x="522" y="147" text-anchor="middle" font-family="sans-serif" font-size="12" fill="white">BELLSPROUT</text>
<path d="M170 430Q115 300 145 180Q175 118 220 123" fill="none" stroke="#f4d35e" stroke-width="5" stroke-dasharray="10 8" marker-end="url(#y)"/><path d="M500 430Q575 300 545 180Q525 120 475 125" fill="none" stroke="#ff786a" stroke-width="5" stroke-dasharray="10 8" marker-end="url(#r)"/>
<rect x="90" y="520" width="580" height="510" rx="34" fill="#f9e8dc" stroke="#9b4237" stroke-width="6"/><text x="380" y="552" text-anchor="middle" font-family="sans-serif" font-size="17" fill="#722b22">LOWER SCREEN</text>
<!-- lower track and features --> <path d="M170 570V760Q170 810 260 845M590 570V760Q590 810 500 845" fill="none" stroke="#be6252" stroke-width="22"/><text x="130" y="685" font-family="sans-serif" font-size="12" fill="#722b22" transform="rotate(-90 130 685)">LOOP RETURN</text><text x="625" y="685" font-family="sans-serif" font-size="12" fill="#722b22" transform="rotate(90 625 685)">LOOP RETURN</text>
<rect x="150" y="605" width="90" height="48" rx="12" fill="#7c3aed"/><text x="195" y="635" text-anchor="middle" font-family="sans-serif" font-size="13" fill="white">DIGLETT</text><rect x="520" y="605" width="90" height="48" rx="12" fill="#7c3aed"/><text x="565" y="635" text-anchor="middle" font-family="sans-serif" font-size="13" fill="white">DIGLETT</text><rect x="290" y="605" width="180" height="75" rx="16" fill="#f4d35e" stroke="#a16207" stroke-width="3"/><text x="380" y="635" text-anchor="middle" font-family="sans-serif" font-size="13" fill="#713f12">POKÉMON PANEL</text><text x="380" y="656" text-anchor="middle" font-family="sans-serif" font-size="12" fill="#713f12">+ BONUS CAVE / SLOTS</text><rect x="115" y="710" width="92" height="40" rx="10" fill="#d6c2ff"/><text x="161" y="735" text-anchor="middle" font-family="sans-serif" font-size="12" fill="#4c1d95">3 EVO ARROWS</text><rect x="553" y="710" width="92" height="40" rx="10" fill="#ffd8d4"/><text x="599" y="735" text-anchor="middle" font-family="sans-serif" font-size="12" fill="#9f1239">3 GET ARROWS</text><circle cx="380" cy="755" r="23" fill="#9b4237"/><text x="380" y="760" text-anchor="middle" font-family="sans-serif" font-size="10" fill="white">CAVE</text><text x="380" y="790" text-anchor="middle" font-family="sans-serif" font-size="12" fill="#722b22">CENTER HOLE → BONUS / TRAVEL</text>
<!-- outlanes, inlanes, flippers --> <path d="M165 810L130 915M595 810L630 915" stroke="#9b4237" stroke-width="14"/><path d="M265 820L300 915M495 820L460 915" stroke="#d9886f" stroke-width="17"/><text x="112" y="885" font-family="sans-serif" font-size="11" fill="#722b22" transform="rotate(-70 112 885)">OUTLANE</text><text x="646" y="885" font-family="sans-serif" font-size="11" fill="#722b22" transform="rotate(70 646 885)">OUTLANE</text><path d="M300 930L370 950M460 930L390 950" stroke="#6b3a30" stroke-width="22" stroke-linecap="round"/><text x="380" y="985" text-anchor="middle" font-family="sans-serif" font-size="15" fill="#722b22">FLIPPERS · DRAIN · PIKACHU SAVE LANES</text>
<path d="M380 920Q520 820 550 750Q570 600 520 440Q540 290 525 170" fill="none" stroke="#ff786a" stroke-width="5" stroke-dasharray="9 8" marker-end="url(#r)"/><path d="M300 920Q190 800 170 740Q145 600 180 450Q150 300 180 160" fill="none" stroke="#f4d35e" stroke-width="5" stroke-dasharray="9 8" marker-end="url(#y)"/><text x="380" y="1065" text-anchor="middle" font-family="sans-serif" font-size="13" fill="#4b5563">Simplified original diagram; routes show the main loop shots, not exact in-game geometry.</text></svg>
